PathFileType	4	(X/Y/Z)	F:\MotionCapture\20160217\3\Generated_files\2_Test05-Dynamic.trc
DataRate	CameraRate	NumFrames	NumMarkers	Units	OrigDataRate	OrigDataStartFrame	OrigNumFrames
120.00	120.00	       4	39	mm	120.00	529	       704
Frame#	Time	Top.Head			Front.Head			Rear.Head			R.Shoulder			R.Offset			R.Elbow			R.Wrist			L.Shoulder			L.Elbow			L.Wrist			R.ASIS			L.ASIS			V.Sacral			R.Thigh			R.Knee			R.Shank			R.Ankle			R.Heel			R.Toe			L.Thigh			L.Knee			L.Shank			L.Ankle			L.Heel			L.Toe			R1			R2			R3			R4			R5			R6			R7			L1			L2			L3			L4			L5			L6			L7			V_Mid_ASIS			V_Pelvis_Origin			V_R.Hip_JC			V_L.Hip_JC			V_R.Knee_JC			V_L.Knee_JC			V_R.Ankle_JC			V_L.Ankle_JC			V_Mid_Hip			V_Mid_Shoulder			V_R.Hand			V_L.Hand			V_R.Toe_Offset_Static			V_L.Toe_Offset_Static			V_R.Toe_Offset			V_L.Toe_Offset			
		X1	Y1	Z1	X2	Y2	Z2	X3	Y3	Z3	X4	Y4	Z4	X5	Y5	Z5	X6	Y6	Z6	X7	Y7	Z7	X8	Y8	Z8	X9	Y9	Z9	X10	Y10	Z10	X11	Y11	Z11	X12	Y12	Z12	X13	Y13	Z13	X14	Y14	Z14	X15	Y15	Z15	X16	Y16	Z16	X17	Y17	Z17	X18	Y18	Z18	X19	Y19	Z19	X20	Y20	Z20	X21	Y21	Z21	X22	Y22	Z22	X23	Y23	Z23	X24	Y24	Z24	X25	Y25	Z25	X26	Y26	Z26	X27	Y27	Z27	X28	Y28	Z28	X29	Y29	Z29	X30	Y30	Z30	X31	Y31	Z31	X32	Y32	Z32	X33	Y33	Z33	X34	Y34	Z34	X35	Y35	Z35	X36	Y36	Z36	X37	Y37	Z37	X38	Y38	Z38	X39	Y39	Z39	

529	4.400	-1652.80627	198.44093	1691.93018	-1775.59521	181.03838	1629.34753	-1557.28809	202.38969	1604.97156	-1634.71631	387.24115	1387.02185	-1510.59998	122.31862	1231.18994	-1630.27087	522.37805	1075.78479	-1841.10596	511.04755	917.96710	-1659.10034	-21.26949	1377.00916	-1572.08167	-128.50458	1077.01758	-1597.54626	-170.32190	823.00385	-1697.97217	349.61612	905.90369	-1751.41492	68.19178	924.57886	-1503.14099	155.35796	904.96271	-1653.77795	341.12283	515.84662	-1518.74316	364.70102	441.67679	-1387.08081	281.30057	250.55359	-1214.24841	320.69434	171.57390	-1173.74084	250.14287	209.15732	-1273.39099	297.89670	41.90764	-1875.15686	117.19964	649.40460	-1861.11011	62.29480	469.63168	-1888.47961	143.14648	332.68616	-1873.96680	75.85480	62.10678	-1804.86572	127.60182	42.91965	-2011.20483	92.85274	43.26545	-1312.45508	279.97119	34.80338	-1287.92957	261.46320	46.79929	-1259.91199	237.88025	127.17805	-1209.17249	225.56569	177.92313	-1179.62842	295.14435	181.73788	-1205.37012	324.38647	106.85698	-1236.38269	333.41864	51.29873	-2053.90161	122.04981	42.56734	-2020.83069	132.34685	47.20942	-1923.16443	168.97472	51.13126	-1838.84729	162.80937	43.39366	-1834.89880	90.97137	40.21404	-1909.90247	67.74209	33.90448	-1971.97083	59.46801	39.26398	
530	4.408	-1665.69531	197.47897	1694.10388	-1788.44324	179.60497	1631.74280	-1570.17126	201.65048	1607.21350	-1647.98547	386.15085	1389.29688	-1522.97351	121.89230	1233.09082	-1640.55237	520.14136	1077.88623	-1847.02710	510.69226	914.11725	-1671.55237	-22.06227	1379.55017	-1588.44812	-128.97916	1078.10522	-1616.49695	-169.33240	824.37323	-1711.97388	347.46365	907.47308	-1764.01733	65.80833	927.18469	-1517.44861	155.39264	906.65814	-1674.04333	342.83929	516.83679	-1539.93530	365.70007	440.72888	-1404.23340	282.77982	253.40990	-1228.48608	322.42404	180.04549	-1191.11267	252.92230	221.94519	-1278.32092	299.29803	45.99281	-1885.63660	115.31208	648.57623	-1869.05725	60.88452	469.40686	-1894.80750	142.00679	332.07306	-1874.54932	75.68076	61.97068	-1805.08911	127.43150	42.92991	-2012.05164	93.11895	42.82500	-1317.12195	280.53372	35.17157	-1293.43872	263.72714	49.47464	-1271.55762	239.55191	133.97325	-1224.04309	227.94530	189.70653	-1195.30945	297.04330	193.64008	-1216.70630	326.17493	117.74732	-1242.70874	333.38272	58.01712	-2055.00635	122.66965	40.73913	-2021.52100	132.89313	46.37236	-1923.47900	168.95238	50.54923	-1839.08569	162.71066	43.30330	-1835.04688	90.78632	40.20239	-1910.10864	67.79472	33.87133	-1972.44678	59.64839	39.12693	
531	4.417	-1678.48010	196.74426	1696.74402	-1801.18188	178.16396	1634.40820	-1583.36816	201.03204	1609.34363	-1661.03137	385.13000	1391.69336	-1535.14417	120.85380	1235.73010	-1650.31274	517.70880	1080.06274	-1852.53748	510.34595	910.42847	-1684.24536	-22.89275	1382.39429	-1604.24231	-129.50635	1079.34888	-1636.12708	-168.90463	826.07227	-1725.79395	345.26541	909.66675	-1776.09656	63.70819	929.49945	-1529.25098	154.85684	908.91046	-1694.58301	342.12970	518.26642	-1562.97095	366.05804	439.86926	-1422.37305	283.36249	257.16708	-1244.39746	323.78802	189.48856	-1211.05420	254.09381	233.97878	-1284.63586	300.58997	50.44316	-1895.59912	113.89954	648.03265	-1875.36731	59.41116	469.49377	-1900.44141	140.79213	332.21371	-1874.95532	75.36252	62.08075	-1805.10291	127.34632	42.91665	-2012.49268	92.57216	41.98060	-1319.26086	283.13113	31.78566	-1300.49304	264.95074	53.37451	-1285.25720	240.65797	140.74599	-1240.98889	228.95976	199.33258	-1211.71936	297.80869	204.92587	-1229.39612	327.35114	128.61392	-1250.18091	335.48679	65.53674	-2055.58130	122.54353	38.94895	-2021.29004	131.94008	44.88831	-1923.82825	169.02089	50.37277	-1839.03174	162.49178	43.27321	-1835.12451	90.53471	40.34946	-1909.99622	67.70564	33.84594	-1972.42151	59.35015	38.96399	
532	4.425	-1690.69543	196.14095	1699.09155	-1813.85645	176.95264	1637.15686	-1595.79443	200.90544	1612.06189	-1673.95825	384.29276	1394.34839	-1549.25562	120.89471	1237.99915	-1659.85413	514.70276	1082.01770	-1857.72681	510.34003	906.52789	-1696.66553	-23.52455	1385.25098	-1620.40894	-129.80481	1080.99634	-1656.41675	-168.21722	827.85291	-1739.09949	343.71155	911.78149	-1788.41809	61.57858	931.90607	-1541.87378	154.92685	911.33020	-1715.68457	340.83423	520.17181	-1586.47205	366.46677	439.00934	-1441.49194	283.54752	260.37897	-1262.63477	325.39899	199.62263	-1232.90686	254.24738	245.23643	-1291.64282	301.95071	54.60677	-1904.85339	112.88263	648.33209	-1881.37781	58.08985	469.59958	-1904.86292	139.93642	332.26743	-1874.76099	75.14055	61.89158	-1805.05969	127.18321	42.94885	-2012.79089	92.14145	41.66367	-1323.90320	285.72882	30.62998	-1308.56921	265.54648	56.76517	-1300.37390	241.74597	146.63483	-1260.07056	229.40694	207.88931	-1230.13269	298.65515	216.25699	-1243.65405	327.85153	139.39635	-1259.34448	336.71948	75.46114	-2056.16992	122.29483	38.08425	-2021.55212	131.68245	44.68881	-1923.75793	168.84065	50.30741	-1838.92126	162.29201	43.24355	-1835.14465	90.31596	40.29908	-1909.86572	67.56020	33.72469	-1972.10474	58.84307	38.36475																																																	-1049.92065	235.03670	271.71829	
